<svg xmlns="http://www.w3.org/2000/svg" viewBox="0 0 950 540"><defs><linearGradient id="sky" x1="0" y1="0" x2="0" y2="1"><stop offset="0" stop-color="#020617"/><stop offset="1" stop-color="#123047"/></linearGradient><radialGradient id="moon"><stop offset="0" stop-color="#fff7c2" stop-opacity=".75"/><stop offset="1" stop-color="#fff7c2" stop-opacity="0"/></radialGradient></defs><rect width="950" height="540" fill="url(#sky)"/><circle cx="805" cy="85" r="95" fill="url(#moon)"/><circle cx="805" cy="85" r="32" fill="#fef08a"/><g fill="#071a23"><circle cx="90" cy="280" r="125"/><circle cx="240" cy="260" r="150"/><circle cx="420" cy="275" r="135"/><circle cx="610" cy="250" r="160"/><circle cx="790" cy="275" r="135"/><circle cx="930" cy="250" r="150"/></g><g fill="#0c2a35"><rect x="82" y="255" width="25" height="285"/><rect x="228" y="235" width="28" height="305"/><rect x="408" y="250" width="25" height="290"/><rect x="598" y="225" width="28" height="315"/><rect x="778" y="250" width="25" height="290"/><rect x="917" y="225" width="28" height="315"/></g><g fill="#6ee7b7"><circle cx="170" cy="180" r="3"/><circle cx="380" cy="130" r="4"/><circle cx="535" cy="205" r="3"/><circle cx="700" cy="155" r="4"/><circle cx="865" cy="190" r="3"/></g></svg>